<svg xmlns="http://www.w3.org/2000/svg" width="14" height="14" viewBox="0 0 14 14">
    <g fill="none" fill-rule="evenodd">
        <g fill="#007CBA" fill-rule="nonzero">
            <g>
                <path d="M7 0C3.14 0 0 3.14 0 7s3.14 7 7 7 7-3.14 7-7-3.14-7-7-7zm0 1.05c3.292 0 5.95 2.658 5.95 5.95 0 3.292-2.658 5.95-5.95 5.95-3.292 0-5.95-2.658-5.95-5.95 0-3.292 2.658-5.95 5.95-5.95zm-.183 1.742c-.29.005-.521.243-.517.533v4.2c0 .29.235.525.525.525h2.8c.19.003.365-.097.46-.26.096-.164.096-.366 0-.53-.095-.163-.27-.263-.46-.26H7.35V3.325c.002-.142-.054-.279-.154-.379-.1-.1-.237-.156-.38-.154z" transform="translate(-175 -548) translate(175 548)"/>
            </g>
        </g>
    </g>
</svg>
