<svg fill="#000000" xmlns="http://www.w3.org/2000/svg"  viewBox="0 0 48 48" width="96px" height="96px"><path d="M 24 5.0273438 C 22.851301 5.0273438 21.70304 5.4009945 20.753906 6.1484375 A 1.50015 1.50015 0 0 0 20.751953 6.1484375 L 8.859375 15.519531 C 7.0554772 16.941163 6 19.113506 6 21.410156 L 6 39.5 C 6 41.414955 7.5850452 43 9.5 43 L 38.5 43 C 40.414955 43 42 41.414955 42 39.5 L 42 21.410156 C 42 19.113506 40.944523 16.941163 39.140625 15.519531 L 27.246094 6.1484375 C 26.29696 5.4009945 25.148699 5.0273438 24 5.0273438 z M 24 8.0195312 C 24.489801 8.0195312 24.979759 8.1823023 25.390625 8.5058594 L 37.285156 17.876953 C 38.369258 18.731322 39 20.030807 39 21.410156 L 39 39.5 C 39 39.795045 38.795045 40 38.5 40 L 9.5 40 C 9.2049548 40 9 39.795045 9 39.5 L 9 21.410156 C 9 20.030807 9.6307412 18.731322 10.714844 17.876953 L 22.609375 8.5058594 C 23.020241 8.1823023 23.510199 8.0195313 24 8.0195312 z M 24 17 C 23.467 17 22.942594 17.044859 22.433594 17.130859 L 22.119141 18.433594 C 21.631141 20.455594 19.549687 21.657359 17.554688 21.068359 L 16.460938 20.744141 C 15.801937 21.592141 15.275156 22.555656 14.910156 23.597656 L 15.722656 24.380859 C 17.209656 25.811859 17.209656 28.190094 15.722656 29.621094 L 14.910156 30.402344 C 15.275156 31.445344 15.801937 32.407859 16.460938 33.255859 L 17.554688 32.933594 C 19.549688 32.343594 21.631141 33.545359 22.119141 35.568359 L 22.433594 36.869141 C 22.942594 36.954141 23.467 37 24 37 C 24.533 37 25.056406 36.955141 25.566406 36.869141 L 25.880859 35.566406 C 26.368859 33.543406 28.450312 32.342641 30.445312 32.931641 L 31.539062 33.255859 C 32.198062 32.407859 32.724844 31.444344 33.089844 30.402344 L 32.277344 29.619141 C 30.790344 28.189141 30.790344 25.810859 32.277344 24.380859 L 33.089844 23.597656 C 32.724844 22.554656 32.198062 21.592141 31.539062 20.744141 L 30.445312 21.068359 C 28.450312 21.658359 26.368859 20.456594 25.880859 18.433594 L 25.566406 17.130859 C 25.056406 17.044859 24.533 17 24 17 z M 24 24 C 25.657 24 27 25.343 27 27 C 27 28.657 25.657 30 24 30 C 22.343 30 21 28.657 21 27 C 21 25.343 22.343 24 24 24 z"/></svg>