<svg fill="#000000" xmlns="http://www.w3.org/2000/svg"  viewBox="0 0 48 48" width="96px" height="96px"><path d="M 36.5 3 C 34.209318 3 32.364368 4.7748091 32.101562 7 L 28.5 7 C 24.928062 7 22 9.9280619 22 13.5 L 22 22.5 L 16 22.5 C 16 20.032499 13.967501 18 11.5 18 L 8.5 18 C 6.0324991 18 4 20.032499 4 22.5 L 4 25.5 C 4 27.967501 6.0324991 30 8.5 30 L 11.5 30 C 13.967501 30 16 27.967501 16 25.5 L 22 25.5 L 22 34.5 C 22 38.071938 24.928062 41 28.5 41 L 32.101562 41 C 32.364368 43.225191 34.209318 45 36.5 45 L 39.5 45 C 41.967501 45 44 42.967501 44 40.5 L 44 37.5 C 44 35.032499 41.967501 33 39.5 33 L 36.5 33 C 34.032499 33 32 35.032499 32 37.5 L 32 38 L 28.5 38 C 26.549938 38 25 36.450062 25 34.5 L 25 25.5 L 32 25.5 C 32 27.967501 34.032499 30 36.5 30 L 39.5 30 C 41.967501 30 44 27.967501 44 25.5 L 44 22.5 C 44 20.032499 41.967501 18 39.5 18 L 36.5 18 C 34.032499 18 32 20.032499 32 22.5 L 25 22.5 L 25 13.5 C 25 11.549938 26.549938 10 28.5 10 L 32 10 L 32 10.5 C 32 12.967501 34.032499 15 36.5 15 L 39.5 15 C 41.967501 15 44 12.967501 44 10.5 L 44 7.5 C 44 5.0324991 41.967501 3 39.5 3 L 36.5 3 z M 36.5 6 L 39.5 6 C 40.346499 6 41 6.6535009 41 7.5 L 41 10.5 C 41 11.346499 40.346499 12 39.5 12 L 36.5 12 C 35.653501 12 35 11.346499 35 10.5 L 35 8.7460938 A 1.50015 1.50015 0 0 0 35 8.2597656 L 35 7.5 C 35 6.6535009 35.653501 6 36.5 6 z M 8.5 21 L 11.5 21 C 12.346499 21 13 21.653501 13 22.5 L 13 25.5 C 13 26.346499 12.346499 27 11.5 27 L 8.5 27 C 7.6535009 27 7 26.346499 7 25.5 L 7 22.5 C 7 21.653501 7.6535009 21 8.5 21 z M 36.5 21 L 39.5 21 C 40.346499 21 41 21.653501 41 22.5 L 41 25.5 C 41 26.346499 40.346499 27 39.5 27 L 36.5 27 C 35.653501 27 35 26.346499 35 25.5 L 35 22.5 C 35 21.653501 35.653501 21 36.5 21 z M 36.5 36 L 39.5 36 C 40.346499 36 41 36.653501 41 37.5 L 41 40.5 C 41 41.346499 40.346499 42 39.5 42 L 36.5 42 C 35.653501 42 35 41.346499 35 40.5 L 35 39.746094 A 1.50015 1.50015 0 0 0 35 39.259766 L 35 37.5 C 35 36.653501 35.653501 36 36.5 36 z"/></svg>