<svg width="25px" height="25px" viewBox="0 0 18 18" version="1.1" fill="#6B7175" xmlns="http://www.w3.org/2000/svg" xmlns:xlink="http://www.w3.org/1999/xlink">
    <title>help-hand</title>
    <g id="Page-1" stroke="none" stroke-width="1" fill-rule="evenodd">
        <g id="2.-More-Menu" transform="translate(-1043.000000, -93.000000)" >
            <g id="helping-hand" transform="translate(1043.000000, 93.000000)">
                <polygon id="Path" points="10 0 11 0 11 2 10 2"></polygon>
                <polygon id="Path" transform="translate(6.500000, 2.500000) rotate(-26.565051) translate(-6.500000, -2.500000) " points="6 1.15452558 6.73116855 1 7 3.84547442 6.26883145 4"></polygon>
                <polygon id="Path" transform="translate(13.500000, 2.500000) rotate(-63.434949) translate(-13.500000, -2.500000) " points="12.1545256 2 15 2.26883145 14.8454744 3 12 2.73116855"></polygon>
                <polygon id="Path" points="10 17 11 17 11 19 10 19"></polygon>
                <polygon id="Path" transform="translate(6.500000, 16.500000) rotate(-63.434949) translate(-6.500000, -16.500000) " points="5.15452558 16 8 16.2688315 7.84547442 17 5 16.7311685"></polygon>
                <polygon id="Path" transform="translate(14.118034, 16.565248) rotate(-26.565051) translate(-14.118034, -16.565248) " points="13.618034 15.2197732 14.3492025 15.0652476 14.618034 17.910722 13.8868654 18.0652476"></polygon>
                <path d="M4.23484375,5.35217154 L0,4 L0,10.813183 L2.60269531,12.0529478 C4.08695312,13.6669728 6.81058594,15 10,15 C13.1761328,15 15.9085937,13.6717778 17.3973047,12.0529478 L20,10.813183 L20,4 L15.7651562,5.35217154 L4.23484375,5.35217154 Z M10,13.8649614 C6.99316406,13.8649614 4.52800781,12.5441547 3.34464844,11.1415118 L1.171875,10.1065079 L1.171875,5.56930443 L4.04664062,6.48683183 L6.75867187,6.48683183 C6.65507812,6.62163659 6.56253906,6.76695937 6.48285156,6.92136246 L4.36472656,11.0273647 L6.20773437,11.0273647 C7.87945312,11.0273647 9.46210937,10.1846742 10.3455469,8.75861168 C12.6481641,8.8004946 14.8196094,9.83220689 16.2646094,11.5565954 C15.5198047,12.2544929 13.4292578,13.8649614 10,13.8649614 Z M18.828125,5.56930443 L18.828125,10.1065079 L17.2057812,10.8793179 C15.5092969,8.83159466 12.9266406,7.62224882 10.1997266,7.62224882 L9.63785156,7.62224882 L9.47589844,7.9359735 C8.86082031,9.1274614 7.6321875,9.87333313 6.26042969,9.8919856 L7.53109375,7.4286869 C7.83007812,6.84913617 8.42792969,6.48872356 9.09195312,6.48721018 L15.9533203,6.48721018 L18.828125,5.56930443 Z" id="Shape" fill-rule="nonzero"></path>
            </g>
        </g>
    </g>
</svg>