<svg fill="#000000" xmlns="http://www.w3.org/2000/svg"  viewBox="0 0 48 48" width="96px" height="96px"><path d="M 8.5 8 C 6.0324991 8 4 10.032499 4 12.5 L 4 35.5 C 4 37.967501 6.0324991 40 8.5 40 L 39.5 40 C 41.967501 40 44 37.967501 44 35.5 L 44 12.5 C 44 10.032499 41.967501 8 39.5 8 L 8.5 8 z M 8.5 11 L 39.5 11 C 40.346499 11 41 11.653501 41 12.5 L 41 35.5 C 41 36.346499 40.346499 37 39.5 37 L 8.5 37 C 7.6535009 37 7 36.346499 7 35.5 L 7 12.5 C 7 11.653501 7.6535009 11 8.5 11 z M 16 17 A 3 3 0 0 0 16 23 A 3 3 0 0 0 16 17 z M 26.5 19 A 1.50015 1.50015 0 1 0 26.5 22 L 35.5 22 A 1.50015 1.50015 0 1 0 35.5 19 L 26.5 19 z M 12.5 25 C 11.672 25 11 25.672 11 26.5 C 11 28 11.000391 31 15.900391 31 L 16.099609 31 C 20.999609 31 21 28 21 26.5 C 21 25.672 20.328 25 19.5 25 L 12.5 25 z M 26.5 26 A 1.50015 1.50015 0 1 0 26.5 29 L 35.5 29 A 1.50015 1.50015 0 1 0 35.5 26 L 26.5 26 z"/></svg>