<svg fill="#000000" xmlns="http://www.w3.org/2000/svg"  viewBox="0 0 48 48" width="96px" height="96px"><path d="M 24 4 C 12.972066 4 4 12.972074 4 24 C 4 35.027926 12.972066 44 24 44 C 35.027934 44 44 35.027926 44 24 C 44 12.972074 35.027934 4 24 4 z M 24 7 C 33.406615 7 41 14.593391 41 24 C 41 33.406609 33.406615 41 24 41 C 14.593385 41 7 33.406609 7 24 C 7 14.593391 14.593385 7 24 7 z M 24 8.5 A 1.5 1.5 0 0 0 24 11.5 A 1.5 1.5 0 0 0 24 8.5 z M 14.101562 12.601562 A 1.5 1.5 0 0 0 14.101562 15.601562 A 1.5 1.5 0 0 0 14.101562 12.601562 z M 33.898438 12.601562 A 1.5 1.5 0 0 0 33.898438 15.601562 A 1.5 1.5 0 0 0 33.898438 12.601562 z M 34.498047 19.216797 C 32.208377 19.17827 24.126875 21.782219 23.234375 22.152344 C 22.214375 22.575344 21.729344 23.745625 22.152344 24.765625 C 22.575344 25.785625 23.745625 26.270656 24.765625 25.847656 C 25.786625 25.424656 35.508938 20.427203 35.085938 19.408203 C 35.033062 19.280578 34.825143 19.222301 34.498047 19.216797 z M 10 22.5 A 1.5 1.5 0 0 0 10 25.5 A 1.5 1.5 0 0 0 10 22.5 z M 38 22.5 A 1.5 1.5 0 0 0 38 25.5 A 1.5 1.5 0 0 0 38 22.5 z M 14.101562 32.398438 A 1.5 1.5 0 0 0 14.101562 35.398438 A 1.5 1.5 0 0 0 14.101562 32.398438 z M 33.898438 32.398438 A 1.5 1.5 0 0 0 33.898438 35.398438 A 1.5 1.5 0 0 0 33.898438 32.398438 z"/></svg>