<svg fill="#000000" xmlns="http://www.w3.org/2000/svg"  viewBox="0 0 48 48" width="96px" height="96px"><path d="M 11.5 6 C 8.4802259 6 6 8.4802259 6 11.5 L 6 36.5 C 6 39.519774 8.4802259 42 11.5 42 L 36.5 42 C 39.519774 42 42 39.519774 42 36.5 L 42 11.5 C 42 8.4802259 39.519774 6 36.5 6 L 11.5 6 z M 11.5 9 L 36.5 9 C 37.898226 9 39 10.101774 39 11.5 L 39 36.5 C 39 37.898226 37.898226 39 36.5 39 L 11.5 39 C 10.101774 39 9 37.898226 9 36.5 L 9 11.5 C 9 10.101774 10.101774 9 11.5 9 z M 22.5 12 A 1.50015 1.50015 0 0 0 21 13.5 L 21 18.5 A 1.50015 1.50015 0 0 0 22.5 20 L 34.5 20 A 1.50015 1.50015 0 0 0 36 18.5 L 36 13.5 A 1.50015 1.50015 0 0 0 34.5 12 L 22.5 12 z M 13.5 14 A 1.50015 1.50015 0 1 0 13.5 17 L 16.5 17 A 1.50015 1.50015 0 1 0 16.5 14 L 13.5 14 z M 24 15 L 33 15 L 33 17 L 24 17 L 24 15 z M 22.5 22 A 1.50015 1.50015 0 0 0 21 23.5 L 21 28.5 A 1.50015 1.50015 0 0 0 22.5 30 L 34.5 30 A 1.50015 1.50015 0 0 0 36 28.5 L 36 23.5 A 1.50015 1.50015 0 0 0 34.5 22 L 22.5 22 z M 13.5 24 A 1.50015 1.50015 0 1 0 13.5 27 L 16.5 27 A 1.50015 1.50015 0 1 0 16.5 24 L 13.5 24 z M 24 25 L 33 25 L 33 27 L 24 27 L 24 25 z M 18.5 33 A 1.50015 1.50015 0 1 0 18.5 36 L 34.5 36 A 1.50015 1.50015 0 1 0 34.5 33 L 18.5 33 z"/></svg>