<svg width="25px" height="25px" viewBox="0 0 18 18" version="1.1" fill="#6B7175" xmlns="http://www.w3.org/2000/svg" xmlns:xlink="http://www.w3.org/1999/xlink">
    <title>ask</title>
    <g id="Page-1" stroke="none" stroke-width="1" fill-rule="evenodd">
        <g id="2.-More-Menu" transform="translate(-1044.000000, -160.000000)" fill-rule="nonzero">
            <g id="ask" transform="translate(1044.000000, 160.000000)">
                <path d="M10.6171981,7.87496924 C10.6171981,8.26330366 10.3024095,8.57809149 9.91407416,8.57809149 L9.91407416,8.57809149 C9.52573878,8.57809149 9.21095017,8.26330366 9.21095017,7.87496924 C9.21095017,7.48663482 9.52573878,7.17184698 9.91407416,7.17184698 L9.91407416,7.17184698 C10.3023744,7.17184698 10.6171981,7.48663482 10.6171981,7.87496924 Z M8.01563939,3.33961977 C8.40397477,3.33961977 8.71876338,3.02483193 8.71876338,2.63649751 C8.71876338,1.95816032 9.2706454,1.40624451 9.94901942,1.40624451 C10.6273934,1.40624451 11.1792403,1.95812516 11.1792403,2.63649751 C11.1792403,2.64342327 11.1793458,2.65034902 11.1795216,2.65720446 C11.1716466,3.14313225 10.8798853,3.5782243 10.4316086,3.76961418 C9.71132836,4.0771247 9.24589543,4.78766489 9.24589543,5.57973211 L9.24589543,5.62497803 C9.24589543,6.01331245 9.56068404,6.32810028 9.94901942,6.32810028 C10.3373548,6.32810028 10.6521434,6.01331245 10.6521434,5.62497803 L10.6521434,5.57973211 C10.6521434,5.35177988 10.7823268,5.14892911 10.9837718,5.0629021 C11.9573173,4.64728653 12.5862266,3.69476682 12.5859805,2.63632173 C12.5859805,2.62630224 12.5857695,2.61635306 12.5853476,2.60640388 C12.5691406,1.16640951 11.3927087,0 9.94898426,0 C8.49520511,0 7.31248025,1.18272194 7.31248025,2.63649751 C7.31248025,3.02483193 7.62730402,3.33961977 8.01563939,3.33961977 Z M17.296876,14.4843536 C17.6852114,14.4843536 18,14.1695657 18,13.7812313 L18,13.0471014 C18,11.3777134 16.6417051,10.0195273 14.9721723,10.0195273 L8.22657659,10.0195273 C7.35835909,10.0195273 6.61121954,10.5469041 6.2880286,11.2980145 L3.5770286,8.82084445 C3.176037,8.43226394 2.64792057,8.22220616 2.08953466,8.22656718 C1.52612141,8.23194441 0.99846201,8.45634587 0.603868828,8.85849665 C0.209205335,9.26061226 -0.00521232481,9.79234847 0,10.3557955 C0.00540484739,10.9191722 0.229771711,11.4467951 0.631923475,11.8414577 C0.636810187,11.8462389 0.641732055,11.8509498 0.646724235,11.8555553 L4.22762923,15.1709876 C5.16081538,16.0730583 6.2440482,16.777411 7.44726912,17.264499 C8.65298613,17.7525361 9.92388274,18 11.224627,18 L17.296876,18 C17.6852114,18 18,17.6852122 18,17.2968777 C18,16.9085433 17.6852114,16.5937555 17.296876,16.5937555 L11.2245918,16.5937555 C8.96380209,16.5937555 6.82423095,15.7276847 5.20001455,14.1551166 C5.19625283,14.1514603 5.19245596,14.1479096 5.18862394,14.1443237 L1.61084785,10.8317389 C1.48059413,10.7008527 1.40799658,10.5274979 1.40627392,10.3425065 C1.40451611,10.1547377 1.47598866,9.97748056 1.60757832,9.8434303 C1.73913282,9.70938004 1.91498413,9.63456783 2.10275339,9.63281003 C2.2902414,9.62989207 2.46781536,9.70248944 2.60186595,9.83411393 C2.60780735,9.83994984 2.61388937,9.84571545 2.62007686,9.85134042 L6.67857882,13.5598181 C7.06417202,13.9766642 7.61531575,14.2382608 8.22657659,14.2382608 L11.7421965,14.2382608 C12.1305319,14.2382608 12.4453205,13.923473 12.4453205,13.5351385 C12.4453205,13.1468041 12.1305319,12.8320163 11.7421965,12.8320163 L8.22657659,12.8320163 C8.08141664,12.8320163 7.94641684,12.7877899 7.83426856,12.7120988 C7.83004982,12.7080558 7.82632326,12.7036262 7.82196389,12.6996535 L7.67922972,12.5692243 C7.58198767,12.4486037 7.5234526,12.295534 7.5234526,12.1288589 C7.5234526,11.7411573 7.83887402,11.4257366 8.22657659,11.4257366 L14.9721723,11.4257366 C15.8663351,11.4257366 16.593752,12.1530463 16.593752,13.0470662 L16.593752,13.7811962 C16.593752,14.1695657 16.9085406,14.4843536 17.296876,14.4843536 Z" id="Shape"></path>
            </g>
        </g>
    </g>
</svg>