<svg fill="#000000" xmlns="http://www.w3.org/2000/svg"  viewBox="0 0 48 48" width="96px" height="96px"><path d="M 12.5 4 C 10.02 4 8 6.02 8 8.5 L 8 39.5 C 8 41.98 10.02 44 12.5 44 L 35.5 44 C 37.981 44 40 41.981 40 39.5 L 40 18.5 C 40 18.085 39.831797 17.710703 39.560547 17.439453 L 26.560547 4.4394531 C 26.289297 4.1682031 25.915 4 25.5 4 L 12.5 4 z M 12.5 7 L 24 7 L 24 15.5 C 24 17.98 26.02 20 28.5 20 L 37 20 L 37 39.5 C 37 40.327 36.327 41 35.5 41 L 12.5 41 C 11.67 41 11 40.33 11 39.5 L 11 8.5 C 11 7.67 11.67 7 12.5 7 z M 27 9.1210938 L 34.878906 17 L 28.5 17 C 27.67 17 27 16.33 27 15.5 L 27 9.1210938 z M 32 25 A 2 2 0 0 0 30.005859 26.873047 L 26 30.878906 L 22.994141 27.873047 A 2 2 0 0 0 21 26 A 2 2 0 0 0 19.005859 27.873047 L 15.873047 31.005859 A 2 2 0 0 0 16 35 A 2 2 0 0 0 17.994141 33.126953 L 21 30.121094 L 24.005859 33.126953 A 2 2 0 0 0 26 35 A 2 2 0 0 0 27.994141 33.126953 L 32.126953 28.994141 A 2 2 0 0 0 32 25 z"/></svg>