<svg width="25px" height="25px" viewBox="0 0 18 18" version="1.1" fill="#6B7175" xmlns="http://www.w3.org/2000/svg" xmlns:xlink="http://www.w3.org/1999/xlink">
    <title>group</title>
    <g id="Page-1" stroke="none" stroke-width="1" fill-rule="evenodd">
        <g id="2.-More-Menu" transform="translate(-1044.000000, -227.000000)" fill-rule="nonzero" stroke="#6B7175" stroke-width="0.2">
            <g id="headphones" transform="translate(1045.000000, 228.000000)">
                <path d="M8.5,0 C3.8131,0 0,3.74563477 0,8.34960937 C0,8.85982617 0,12.8067422 0,12.8769531 C0,13.797748 0.76262,14.546875 1.7,14.546875 L2.36413333,14.546875 C2.59805333,15.1947305 3.22792222,15.6601562 3.96666667,15.6601562 C4.90404667,15.6601562 5.66666667,14.9110293 5.66666667,13.9902344 L5.66666667,9.46289062 C5.66666667,8.5420957 4.90404667,7.79296875 3.96666667,7.79296875 C3.22792222,7.79296875 2.59805333,8.25839453 2.36413333,8.90625 L1.7,8.90625 C1.50132667,8.90625 1.3107,8.94020508 1.13333333,9.00199219 L1.13333333,8.34960937 C1.13333333,4.35949805 4.43802,1.11328125 8.5,1.11328125 C12.56198,1.11328125 15.8666667,4.35949805 15.8666667,8.34960937 L15.8666667,9.00199219 C15.6893,8.94020508 15.4986733,8.90625 15.3,8.90625 L14.6358667,8.90625 C14.4019467,8.25839453 13.7720778,7.79296875 13.0333333,7.79296875 C12.0959533,7.79296875 11.3333333,8.5420957 11.3333333,9.46289062 L11.3333333,13.9902344 C11.3333333,14.9110293 12.0959533,15.6601562 13.0333333,15.6601562 C13.2048822,15.6601562 13.3705,15.6348477 13.5267489,15.5882012 C13.3147778,16.2733145 12.6658311,16.7734375 11.9,16.7734375 L10.1025333,16.7734375 C9.86861333,16.125582 9.23874444,15.6601562 8.5,15.6601562 C7.56262,15.6601562 6.8,16.4092832 6.8,17.3300781 C6.8,18.250873 7.56262,19 8.5,19 C9.23874444,19 9.86861333,18.5345742 10.1025333,17.8867187 L11.9,17.8867187 C13.4623,17.8867187 14.7333333,16.6381738 14.7333333,15.1035156 L14.7333333,14.546875 L15.3,14.546875 C16.23738,14.546875 17,13.797748 17,12.8769531 C17,12.8077812 17,8.85941797 17,8.34960937 C17,3.74563477 13.1869,0 8.5,0 Z M3.4,9.46289062 C3.4,9.15595898 3.65420667,8.90625 3.96666667,8.90625 C4.27912667,8.90625 4.53333333,9.15595898 4.53333333,9.46289062 L4.53333333,13.9902344 C4.53333333,14.297166 4.27912667,14.546875 3.96666667,14.546875 C3.65420667,14.546875 3.4,14.297166 3.4,13.9902344 L3.4,9.46289062 Z M1.7,10.0195312 L2.26666667,10.0195312 L2.26666667,13.4335937 L1.7,13.4335937 C1.38754,13.4335937 1.13333333,13.1838848 1.13333333,12.8769531 L1.13333333,10.5761719 C1.13333333,10.2692402 1.38754,10.0195312 1.7,10.0195312 Z M8.5,17.8867187 C8.18754,17.8867187 7.93333333,17.6370098 7.93333333,17.3300781 C7.93333333,17.0231465 8.18754,16.7734375 8.5,16.7734375 C8.81246,16.7734375 9.06666667,17.0231465 9.06666667,17.3300781 C9.06666667,17.6370098 8.81246,17.8867187 8.5,17.8867187 Z M13.6,13.9902344 C13.6,14.297166 13.3457933,14.546875 13.0333333,14.546875 C12.7208733,14.546875 12.4666667,14.297166 12.4666667,13.9902344 L12.4666667,9.46289062 C12.4666667,9.15595898 12.7208733,8.90625 13.0333333,8.90625 C13.3457933,8.90625 13.6,9.15595898 13.6,9.46289062 L13.6,13.9902344 Z M15.8666667,12.8769531 C15.8666667,13.1838848 15.61246,13.4335937 15.3,13.4335937 L14.7333333,13.4335937 L14.7333333,10.0195312 L15.3,10.0195312 C15.61246,10.0195312 15.8666667,10.2692402 15.8666667,10.5761719 L15.8666667,12.8769531 Z" id="Shape"></path>
            </g>
        </g>
    </g>
</svg>