<svg fill="#000000" xmlns="http://www.w3.org/2000/svg"  width="96px" height="96px" viewBox="0 0 15 16">
<g fill="#00000" fill-rule="nonzero">
	<path d="M475.316 24c-.08 0-.158.004-.236.012-.155.016-.306.047-.45.091-.726.224-1.3.792-1.526 1.51-.044.143-.076.292-.092.445-.008.078-.012.155-.012.234v10.416c0 1.259 1.044 2.292 2.316 2.292h11.368c1.272 0 2.316-1.033 2.316-2.292V26.292c0-.08-.004-.157-.012-.234-.016-.153-.048-.302-.092-.445-.226-.718-.8-1.286-1.526-1.51-.144-.044-.295-.075-.45-.09-.078-.009-.156-.013-.236-.013h-11.368zm-1.053 3.333h13.474v9.375c0 .583-.464 1.042-1.053 1.042h-11.368c-.589 0-1.053-.46-1.053-1.042v-9.375zm1.895.834c-.349 0-.632.28-.632.625v2.083c0 .345.283.625.632.625h9.684c.349 0 .632-.28.632-.625v-2.083c0-.345-.283-.625-.632-.625h-9.684zm.631 1.25h8.422v.833h-8.422v-.833zm-.631 2.916c-.349 0-.632.28-.632.625v2.917c0 .345.283.625.632.625h3.79c.348 0 .63-.28.63-.625v-2.917c0-.345-.282-.625-.63-.625h-3.79zm5.895 0c-.35 0-.632.28-.632.625v2.917c0 .345.283.625.632.625h3.79c.348 0 .63-.28.63-.625v-2.917c0-.345-.282-.625-.63-.625h-3.79zm-5.264 1.25h2.527v1.667h-2.527v-1.667zm5.895 0h2.527v1.667h-2.527v-1.667z" transform="translate(-473 -24)"/>
                    </g>
                </svg>
