<svg width="148" height="24" viewBox="0 0 148 24" fill="none" xmlns="http://www.w3.org/2000/svg">
<path d="M34.9753 2.59094L22.9346 22.9696H18.1327L30.1017 2.59094H34.9753Z" fill="#1DAAFC"/>
<path d="M25.4431 2.59094L13.5458 22.9696L1.5051 2.59094H15.9109L13.7608 6.78029H13.4741H8.81551L13.4741 14.946L20.5695 2.59094H25.4431Z" fill="#070045"/>
<path d="M40.5656 18.9771C40.3506 18.9771 40.2073 18.9061 40.0639 18.835C39.9206 18.693 39.8489 18.551 39.8489 18.409L37.9138 7.11907V7.04807C37.9138 7.04807 37.9138 7.04807 37.9138 6.97706C37.9138 6.90606 37.9855 6.76404 38.0571 6.69304C38.1288 6.62203 38.2005 6.55103 38.3438 6.55103H40.5656C40.924 6.55103 41.0673 6.69304 41.139 6.90605L42.2857 13.7936L43.5758 9.74629C43.5758 9.67529 43.6474 9.53327 43.7191 9.46227C43.7908 9.39126 43.9341 9.32026 44.1491 9.32026H45.4392C45.6542 9.32026 45.7976 9.39126 45.8692 9.46227C45.9409 9.60428 46.0126 9.67529 46.0126 9.74629L47.3027 13.7936L48.4494 6.90605C48.4494 6.62203 48.6644 6.55103 49.0227 6.55103H51.2445C51.3162 6.55103 51.4596 6.62203 51.5312 6.69304C51.6029 6.76404 51.6746 6.83505 51.6746 6.97706C51.6746 6.97706 51.6746 6.97706 51.6746 7.04807C51.6746 7.11907 51.6746 7.11907 51.6746 7.11907L49.7395 18.409C49.7395 18.551 49.6678 18.693 49.5244 18.835C49.3811 18.9771 49.0944 18.9771 48.8794 18.9771H47.1593C46.9443 18.9771 46.801 18.9061 46.7293 18.835C46.6576 18.764 46.5859 18.622 46.5143 18.551L44.7225 13.5096L42.9307 18.551C42.9307 18.622 42.8591 18.764 42.7157 18.835C42.6441 18.9061 42.429 18.9771 42.2857 18.9771H40.5656V18.9771Z" fill="#070045"/>
<path d="M57.1932 19.1901C56.1898 19.1901 55.3298 19.0481 54.6847 18.693C53.968 18.409 53.4663 17.912 53.108 17.3439C52.7496 16.7759 52.5346 16.0658 52.4629 15.2138C52.4629 15.0007 52.4629 14.7167 52.4629 14.4327C52.4629 14.1487 52.4629 13.8646 52.4629 13.6516C52.5346 12.7996 52.7496 12.0895 53.108 11.5214C53.4663 10.9534 54.0397 10.4564 54.6847 10.1723C55.4014 9.88831 56.1898 9.67529 57.1932 9.67529C58.1966 9.67529 58.985 9.81731 59.7017 10.1723C60.4184 10.4564 60.9201 10.9534 61.2784 11.5214C61.6368 12.0895 61.8518 12.7996 61.9235 13.6516C61.9235 13.8646 61.9235 14.1487 61.9235 14.4327C61.9235 14.7167 61.9235 15.0007 61.9235 15.2138C61.8518 16.0658 61.6368 16.7759 61.2784 17.3439C60.9201 17.912 60.4184 18.409 59.7017 18.693C59.0566 18.9771 58.1966 19.1901 57.1932 19.1901ZM57.1932 16.9889C57.6949 16.9889 58.1249 16.8469 58.3399 16.4919C58.5549 16.2078 58.6983 15.7108 58.77 15.0717C58.77 14.9297 58.77 14.6457 58.77 14.3617C58.77 14.0777 58.77 13.8646 58.77 13.6516C58.77 13.0126 58.6266 12.5865 58.3399 12.2315C58.1249 11.8765 57.6949 11.7345 57.1932 11.7345C56.6915 11.7345 56.2615 11.8765 56.0465 12.2315C55.8315 12.5865 55.6164 13.0126 55.6164 13.6516C55.6164 13.8646 55.6164 14.0777 55.6164 14.3617C55.6164 14.6457 55.6164 14.8587 55.6164 15.0717C55.6164 15.7108 55.7598 16.2078 56.0465 16.4919C56.3331 16.7759 56.6915 16.9889 57.1932 16.9889Z" fill="#070045"/>
<path d="M68.0155 19.1901C67.0121 19.1901 66.152 19.0481 65.507 18.693C64.7903 18.409 64.2886 17.912 63.9302 17.3439C63.5719 16.7759 63.3569 16.0658 63.2852 15.2138C63.2852 15.0007 63.2852 14.7167 63.2852 14.4327C63.2852 14.1487 63.2852 13.8646 63.2852 13.6516C63.3569 12.7996 63.5719 12.0895 63.9302 11.5214C64.2886 10.9534 64.862 10.4564 65.507 10.1723C66.2237 9.88831 67.0121 9.67529 68.0155 9.67529C69.0189 9.67529 69.8072 9.81731 70.524 10.1723C71.2407 10.4564 71.7424 10.9534 72.1007 11.5214C72.4591 12.0895 72.6741 12.7996 72.7457 13.6516C72.7457 13.8646 72.7457 14.1487 72.7457 14.4327C72.7457 14.7167 72.7457 15.0007 72.7457 15.2138C72.6741 16.0658 72.4591 16.7759 72.1007 17.3439C71.7424 17.912 71.2407 18.409 70.524 18.693C69.8789 18.9771 69.0189 19.1901 68.0155 19.1901ZM68.0155 16.9889C68.5172 16.9889 68.9472 16.8469 69.1622 16.4919C69.3772 16.2078 69.5206 15.7108 69.5922 15.0717C69.5922 14.9297 69.5922 14.6457 69.5922 14.3617C69.5922 14.0777 69.5922 13.8646 69.5922 13.6516C69.5922 13.0126 69.4489 12.5865 69.1622 12.2315C68.9472 11.8765 68.5172 11.7345 68.0155 11.7345C67.5138 11.7345 67.0838 11.8765 66.8688 12.2315C66.6537 12.5865 66.4387 13.0126 66.4387 13.6516C66.4387 13.8646 66.4387 14.0777 66.4387 14.3617C66.4387 14.6457 66.4387 14.8587 66.4387 15.0717C66.4387 15.7108 66.5821 16.2078 66.8688 16.4919C67.1554 16.7759 67.5138 16.9889 68.0155 16.9889Z" fill="#070045"/>
<path d="M75.1109 18.9771C74.9675 18.9771 74.8959 18.9061 74.8242 18.8351C74.7525 18.7641 74.6809 18.6221 74.6809 18.5511V7.04811C74.6809 6.90609 74.7525 6.83509 74.8242 6.76408C74.8959 6.69308 75.0392 6.62207 75.1109 6.62207H83.353C83.4963 6.62207 83.568 6.69308 83.6397 6.76408C83.7114 6.83509 83.783 6.9771 83.783 7.04811V8.82325C83.783 8.96527 83.7114 9.03627 83.6397 9.10728C83.568 9.17828 83.4247 9.24929 83.353 9.24929H77.8344V11.8765H82.9947C83.138 11.8765 83.2097 11.9475 83.2813 12.0185C83.353 12.0895 83.4247 12.2315 83.4247 12.3736V14.1487C83.4247 14.2907 83.353 14.3617 83.2813 14.4327C83.2097 14.5037 83.0663 14.5747 82.9947 14.5747H77.8344V18.5511C77.8344 18.6931 77.7627 18.7641 77.691 18.8351C77.6194 18.9061 77.476 18.9771 77.4043 18.9771H75.1109V18.9771Z" fill="#1DAAFC"/>
<path d="M88.7283 19.1902C88.0833 19.1902 87.4383 19.0482 86.9366 18.7641C86.4349 18.4801 86.0048 17.9831 85.7182 17.415C85.4315 16.847 85.2881 16.0659 85.2881 15.2138V10.2434C85.2881 10.1014 85.3598 10.0304 85.4315 9.95939C85.5031 9.88839 85.6465 9.81738 85.7182 9.81738H87.9399C88.0833 9.81738 88.155 9.88839 88.2983 9.95939C88.37 10.0304 88.4416 10.1724 88.4416 10.2434V15.0718C88.4416 16.2079 88.9433 16.776 90.0184 16.776C90.5201 16.776 90.8784 16.634 91.1651 16.3499C91.4518 16.0659 91.5951 15.6399 91.5951 15.0718V10.2434C91.5951 10.1014 91.6668 10.0304 91.7385 9.95939C91.8102 9.88839 91.9535 9.81738 92.0252 9.81738H94.247C94.3903 9.81738 94.462 9.88839 94.5336 9.95939C94.6053 10.0304 94.677 10.1724 94.677 10.2434V18.5511C94.677 18.6931 94.6053 18.7641 94.5336 18.8351C94.462 18.9061 94.3186 18.9771 94.247 18.9771H92.1685C92.0252 18.9771 91.9535 18.9061 91.8818 18.8351C91.8102 18.7641 91.7385 18.6221 91.7385 18.5511V17.9121C91.4518 18.3381 91.0218 18.6931 90.5201 18.9061C90.0184 19.1192 89.445 19.1902 88.7283 19.1902Z" fill="#1DAAFC"/>
<path d="M97.1855 18.9771C97.0421 18.9771 96.9705 18.9061 96.8988 18.8351C96.8271 18.7641 96.7554 18.6221 96.7554 18.5511V10.2434C96.7554 10.1014 96.8271 10.0304 96.8988 9.9594C96.9705 9.88839 97.1138 9.81739 97.1855 9.81739H99.2639C99.4073 9.81739 99.4789 9.88839 99.6223 9.9594C99.6939 10.0304 99.7656 10.1724 99.7656 10.2434V10.8825C100.052 10.5274 100.482 10.2434 100.984 9.9594C101.486 9.74638 102.059 9.60437 102.776 9.60437C103.492 9.60437 104.066 9.74638 104.639 10.0304C105.141 10.3144 105.571 10.8115 105.858 11.3795C106.144 11.9476 106.288 12.7286 106.288 13.5807V18.5511C106.288 18.6931 106.216 18.7641 106.144 18.8351C106.073 18.9061 105.929 18.9771 105.858 18.9771H103.636C103.492 18.9771 103.421 18.9061 103.349 18.8351C103.277 18.7641 103.206 18.6221 103.206 18.5511V13.7227C103.206 13.1547 103.062 12.7286 102.776 12.4446C102.489 12.1606 102.131 12.0186 101.557 12.0186C101.056 12.0186 100.697 12.1606 100.411 12.4446C100.124 12.7286 99.9806 13.1547 99.9806 13.7227V18.5511C99.9806 18.6931 99.909 18.7641 99.8373 18.8351C99.7656 18.9061 99.6223 18.9771 99.5506 18.9771H97.1855V18.9771Z" fill="#1DAAFC"/>
<path d="M108.581 18.9771C108.438 18.9771 108.366 18.9061 108.294 18.8351C108.223 18.7641 108.151 18.6221 108.151 18.5511V10.2434C108.151 10.1014 108.223 10.0304 108.294 9.9594C108.366 9.88839 108.509 9.81739 108.581 9.81739H110.66C110.803 9.81739 110.875 9.88839 111.018 9.9594C111.09 10.0304 111.161 10.1724 111.161 10.2434V10.8825C111.448 10.5274 111.878 10.2434 112.38 9.9594C112.881 9.74638 113.455 9.60437 114.171 9.60437C114.888 9.60437 115.462 9.74638 116.035 10.0304C116.537 10.3144 116.967 10.8115 117.253 11.3795C117.54 11.9476 117.683 12.7286 117.683 13.5807V18.5511C117.683 18.6931 117.612 18.7641 117.54 18.8351C117.468 18.9061 117.325 18.9771 117.253 18.9771H115.031C114.888 18.9771 114.816 18.9061 114.745 18.8351C114.673 18.7641 114.601 18.6221 114.601 18.5511V13.7227C114.601 13.1547 114.458 12.7286 114.171 12.4446C113.885 12.1606 113.526 12.0186 112.953 12.0186C112.451 12.0186 112.093 12.1606 111.806 12.4446C111.52 12.7286 111.376 13.1547 111.376 13.7227V18.5511C111.376 18.6931 111.305 18.7641 111.233 18.8351C111.161 18.9061 111.018 18.9771 110.946 18.9771H108.581V18.9771Z" fill="#1DAAFC"/>
<path d="M123.847 19.1901C122.414 19.1901 121.339 18.8351 120.478 18.054C119.618 17.273 119.188 16.2079 119.188 14.7168C119.188 14.6457 119.188 14.5037 119.188 14.4327C119.188 14.2907 119.188 14.2197 119.188 14.1487C119.188 13.2256 119.403 12.4446 119.833 11.7345C120.192 11.0954 120.765 10.5274 121.41 10.2434C122.127 9.88835 122.915 9.74634 123.847 9.74634C124.922 9.74634 125.782 9.95936 126.427 10.3854C127.144 10.8114 127.645 11.3795 128.004 12.0895C128.362 12.7996 128.506 13.5807 128.506 14.5037V14.7168C128.506 14.8588 128.434 14.9298 128.362 15.0008C128.291 15.0718 128.147 15.1428 128.075 15.1428H122.342C122.342 15.1428 122.342 15.1428 122.342 15.2138C122.342 15.2848 122.342 15.2848 122.342 15.2848C122.342 15.6398 122.414 15.9239 122.557 16.2079C122.7 16.4919 122.844 16.7049 123.059 16.8469C123.274 16.9889 123.56 17.0599 123.847 17.0599C124.062 17.0599 124.277 16.9889 124.42 16.9179C124.564 16.8469 124.707 16.7759 124.85 16.6339C124.922 16.5629 125.065 16.4209 125.065 16.3499C125.137 16.2079 125.28 16.1369 125.352 16.1369C125.424 16.1369 125.495 16.0659 125.639 16.0659H127.86C128.004 16.0659 128.075 16.0659 128.147 16.1369C128.219 16.2079 128.29 16.2789 128.219 16.4209C128.219 16.6339 128.075 16.8469 127.932 17.131C127.789 17.415 127.43 17.699 127.072 17.983C126.714 18.267 126.284 18.4801 125.71 18.6931C125.209 19.0481 124.564 19.1901 123.847 19.1901ZM122.342 13.4386H125.352C125.352 13.0836 125.28 12.7286 125.209 12.4446C125.137 12.1605 124.922 11.9475 124.707 11.8055C124.492 11.6635 124.205 11.5925 123.847 11.5925C123.56 11.5925 123.274 11.6635 123.059 11.8055C122.844 11.9475 122.629 12.1605 122.557 12.4446C122.485 12.7286 122.342 13.0126 122.342 13.4386Z" fill="#1DAAFC"/>
<path d="M130.512 18.9771C130.369 18.9771 130.297 18.9061 130.226 18.8351C130.154 18.7641 130.082 18.6221 130.082 18.5511V6.83509C130.082 6.69308 130.154 6.62208 130.226 6.55107C130.297 6.48006 130.441 6.40906 130.512 6.40906H132.591C132.734 6.40906 132.806 6.48006 132.878 6.55107C132.949 6.62208 133.021 6.76409 133.021 6.83509V18.4801C133.021 18.6221 132.949 18.6931 132.878 18.7641C132.806 18.8351 132.662 18.9061 132.591 18.9061H130.512V18.9771Z" fill="#1DAAFC"/>
<path d="M138.969 19.1901C138.181 19.1901 137.536 19.1191 136.963 18.9061C136.389 18.7641 135.959 18.5511 135.673 18.2671C135.314 18.054 135.099 17.77 134.884 17.486C134.741 17.202 134.598 16.989 134.598 16.7759C134.598 16.6339 134.598 16.5629 134.741 16.4919C134.813 16.4209 134.956 16.3499 135.028 16.3499H137.034H137.106C137.106 16.3499 137.178 16.3499 137.178 16.4209C137.321 16.4919 137.464 16.6339 137.608 16.7049C137.751 16.8469 137.966 16.9179 138.109 17.06C138.253 17.202 138.539 17.202 138.826 17.202C139.185 17.202 139.471 17.131 139.686 16.989C139.901 16.8469 140.045 16.6339 140.045 16.4209C140.045 16.2079 139.973 16.0659 139.901 15.9239C139.83 15.7819 139.543 15.7108 139.256 15.5688C138.898 15.4268 138.468 15.3558 137.751 15.2138C137.106 15.0718 136.604 14.8588 136.103 14.6458C135.673 14.4327 135.314 14.1487 135.028 13.7227C134.741 13.2966 134.669 12.8706 134.669 12.3736C134.669 11.8765 134.813 11.4505 135.099 11.0244C135.386 10.5984 135.888 10.2434 136.461 9.95936C137.034 9.67534 137.823 9.53333 138.683 9.53333C139.328 9.53333 139.973 9.60433 140.475 9.74634C140.976 9.88836 141.406 10.1014 141.765 10.3854C142.123 10.5984 142.338 10.8824 142.553 11.1665C142.768 11.4505 142.84 11.6635 142.84 11.8765C142.84 12.0185 142.84 12.0895 142.768 12.1605C142.696 12.2316 142.553 12.3026 142.481 12.3026H140.618C140.546 12.3026 140.546 12.3026 140.475 12.3026C140.403 12.3026 140.403 12.2316 140.331 12.2316C140.188 12.1605 140.045 12.0895 139.901 11.9475C139.758 11.8055 139.615 11.7345 139.4 11.6635C139.185 11.5925 138.969 11.5215 138.683 11.5215C138.396 11.5215 138.109 11.5925 137.966 11.7345C137.823 11.8765 137.679 12.0895 137.679 12.3026C137.679 12.4446 137.751 12.5866 137.823 12.7286C137.894 12.8706 138.109 12.9416 138.468 13.0836C138.754 13.1546 139.256 13.2966 139.973 13.4387C140.761 13.5807 141.478 13.7937 141.908 14.0777C142.41 14.3617 142.768 14.7168 142.983 15.0718C143.198 15.4268 143.27 15.8529 143.27 16.2789C143.27 16.8469 143.126 17.344 142.768 17.77C142.41 18.1961 141.908 18.5511 141.263 18.7641C140.69 19.0481 139.901 19.1901 138.969 19.1901Z" fill="#1DAAFC"/>
</svg>
